<?xml version="1.0" encoding="UTF-8" standalone="no"?>
<svg
   xmlns:dc="http://purl.org/dc/elements/1.1/"
   xmlns:cc="http://creativecommons.org/ns#"
   xmlns:rdf="http://www.w3.org/1999/02/22-rdf-syntax-ns#"
   xmlns:svg="http://www.w3.org/2000/svg"
   xmlns="http://www.w3.org/2000/svg"
   id="svg2"
   viewBox="0 256 1821.3333 512"
   height="500"
   width="1821.3333"
   xml:space="preserve"
   version="1.1">
  <link xmlns="http://www.w3.org/1999/xhtml" rel="stylesheet" href="../css/styles.css" type="text/css"/>
   <metadata
     id="metadata8"><rdf:RDF><cc:Work
         rdf:about=""><dc:format>image/svg+xml</dc:format><dc:type
           rdf:resource="http://purl.org/dc/dcmitype/StillImage" /></cc:Work></rdf:RDF></metadata><g
     transform="matrix(1.3333333,0,0,-1.3333333,0,1024)"
     class="button"
     id="g10"><g
       transform="translate(0,520.0902)"
       id="g12"><path
         id="path14"
         d="M 0,0 159.122,-159.123 0,-318.245 h 73.441 l 122.402,122.402 122.401,-122.402 h 73.441 L 73.441,0 Z" /></g><g
       transform="translate(326.5825,419.7202)"
       id="g16"><path
         id="path18"
         d="M 0,0 H 121.407 L 69.998,51.409 H 16.142 L -76.884,-41.617 -113.604,-4.896 -8.339,100.37 H 92.03 L 199.744,-7.344 163.023,-41.617 h -204.64 z" /></g><g
       transform="translate(687.8965,275.2871)"
       id="g20"><path
         id="path22"
         d="M 0,0 137.089,137.089 29.376,244.803 h 70.993 L 208.082,137.089 70.992,0 Z" /></g><g
       transform="translate(200.7383,522.5376)"
       id="g24"><path
         id="path26"
         d="m 0,0 41.617,41.617 h 70.925 L 70.926,0 Z" /></g><g
       transform="translate(95.4731,522.5376)"
       id="g28"><path
         id="path30"
         d="m 0,0 41.617,41.617 h 70.925 L 70.926,0 Z" /></g><g
       transform="translate(977.0576,436.563)"
       id="g32"><path
         id="path34"
         d="M 0,0 -34.566,34.566 H 48.666 L 82.938,0.293 Z m 70.698,83.527 h -222.77 L -46.807,-24.187 -183.896,-161.276 h 70.993 L -0.294,-48.667 H 82.938 L -29.671,-161.276 h 70.993 l 137.09,137.089 z" /></g><g
       transform="translate(1295.0063,520.0902)"
       id="g36"><path
         id="path38"
         d="M 0,0 -318.243,-318.245 H 70.891 l -50.27,48.961 -219.216,-0.307 L 70.994,0 Z" /></g><g
       transform="translate(374.5483,250.8066)"
       id="g40"><path
         id="path42"
         d="M 0,0 48.96,-48.961 H 570.653 L 619.614,0 Z" /></g><g
       transform="translate(353.5098,275.2861)"
       id="g44"><path
         id="path46"
         d="m 0,0 -49.659,48.961 173.515,2.18 85.681,85.949 -105.266,107.714 H 327.042 L 434.756,137.09 297.666,0.001 H 226.673 L 363.763,137.09 305.01,195.843 H 221.777 L 280.53,137.09 143.44,0.001 Z" /></g><g
       transform="translate(1177.502,520.0898)"
       id="g48"><path
         id="path50"
         d="m 0,0 41.616,41.616 h 70.926 L 70.926,0 Z" /></g><g
       transform="translate(1072.2363,520.0898)"
       id="g52"><path
         id="path54"
         d="m 0,0 41.617,41.616 h 70.925 L 70.926,0 Z" /></g></g></svg>